<svg xmlns="http://www.w3.org/2000/svg" viewBox="0 0 30 28" width="45" height="35">
  <defs>
    <!-- Crisp Tailwind Blue to Pink Gradient -->
    <linearGradient id="codeGradient" x1="0%" y1="0%" x2="100%" y2="0%">
      <stop offset="0%" stop-color="#0044ff" />
      <stop offset="50%" stop-color="#fd7ba9" />
      <stop offset="100%" stop-color="#ff0059" />
    </linearGradient>
  </defs>
  
  <!-- "@" Character Text -->
  <text 
    x="0" 
    y="20" 
    fill="url(#codeGradient)" 
    font-family="Consolas, Monaco, 'Andale Mono', 'Ubuntu Mono', monospace" 
    font-weight="900" 
    font-size="28"
  >@</text>
  
  <!-- Cleaned Map Pin Paths (Shifted right to avoid overlapping the @ text) -->
  <g fill="none" stroke="url(#codeGradient)" stroke-width="1.5" stroke-linecap="round" stroke-linejoin="round" transform="translate(12, 2)">
    <path d="M6.75 15.8719C4.91775 16.3252 3.75 17.011 3.75 17.7785C3.75 19.1435 7.44365 20.25 12 20.25C16.5563 20.25 20.25 19.1435 20.25 17.7785C20.25 17.011 19.0823 16.3252 17.25 15.8719" />
    <path d="M13.5 9C13.5 9.82843 12.8284 10.5 12 10.5C11.1716 10.5 10.5 9.82843 10.5 9C10.5 8.17157 11.1716 7.5 12 7.5C12.8284 7.5 13.5 8.17157 13.5 9Z" />
    <path d="M17.25 8.8125C17.25 12 14.25 15.75 12 17.25C9.75 15.75 6.75 12 6.75 8.8125C6.75 6.01656 9 3.75 12 3.75C15 3.75 17.25 6.01656 17.25 8.8125Z" />
  </g>
</svg>
